:version 1.10
:name ASF
:units
  mass 1
  length 1
  angle deg
:documentation
  ASF file generated by Kaydara
:root
  axis xyz
  order  tx ty tz rx ry rz
  position 0 0 0
  orientation 0 0 0
:bonedata
  begin
    id 1
    name RightUpLegDummy
    direction -0.718183 -0.695806 0.00816078
    length 4.904
    axis 0 0 0 xyz
  end
  begin
    id 2
    name RightUpLeg
    direction 3.53373e-006 -0.995788 0.0916898
    length 17.4976
    axis -3.49089 -0.000906625 0.000286804 xyz
    dof rx ry rz
  end
  begin
    id 3
    name RightLeg
    direction 0.00371092 -0.995096 -0.0988419
    length 16.5821
    axis 3.68512 0.0193738 -0.131023 xyz
    dof rx ry rz
  end
  begin
    id 4
    name RightFoot
    direction 0.00079151 -0.46099 0.887405
    length 3.77069
    axis 4.81691e-005 -0.120479 -0.188788 xyz
    dof rx ry rz
  end
  begin
    id 5
    name RightToes
    direction 0 0 0
    length 0
    axis 0 0 0 xyz
    dof rx ry rz
  end
  begin
    id 6
    name SpineDummy
    direction 8.3039e-015 1 4.57515e-016
    length 4.6813
    axis 0 0 0 xyz
  end
  begin
    id 7
    name Spine
    direction -3.15643e-008 0.999988 0.00495137
    length 10.1015
    axis -0.001389 0.000121418 2.40972e-006 xyz
    dof rx ry rz
  end
  begin
    id 8
    name Spine1
    direction 0 0 0
    length 0
    axis -0.001389 0.000121451 1.30017e-006 xyz
    dof rx ry rz
  end
  begin
    id 9
    name HEadDummy
    direction -1.99912e-008 0.999999 0.00127422
    length 3.43865
    axis -0.001389 0.000121451 1.30017e-006 xyz
  end
  begin
    id 10
    name HEad
    direction 0 0 0
    length 0
    axis 0 0 0 xyz
    dof rx ry rz
  end
  begin
    id 11
    name LeftShoulder1Dummy
    direction 0.998891 -0.0402509 -0.0244456
    length 3.5433
    axis -0.001389 0.000121451 1.30017e-006 xyz
  end
  begin
    id 12
    name LeftShoulder1
    direction 0.99951 -0.000327763 0.0313091
    length 4.05031
    axis -0.001389 0.000121451 1.30017e-006 xyz
    dof rx ry rz
  end
  begin
    id 13
    name LeftArm
    direction 0.998561 -0.00100056 -0.0536182
    length 10.3537
    axis -23.1894 0.134784 0.967509 xyz
    dof rx ry rz
  end
  begin
    id 14
    name LeftForeArm
    direction 0.998903 0.00866432 0.046012
    length 8.70632
    axis -9.91835 -0.06569 -0.177794 xyz
    dof rx ry rz
  end
  begin
    id 15
    name LeftHand
    direction 0 0 0
    length 0
    axis 0 0 0 xyz
    dof rx ry rz
  end
  begin
    id 16
    name RightShoulderDummy
    direction -0.998891 -0.0402509 -0.0244414
    length 3.5433
    axis -0.001389 0.000121451 1.30017e-006 xyz
  end
  begin
    id 17
    name RightShoulder
    direction -0.99951 -0.000327807 0.0313133
    length 4.05031
    axis 0.215806 0.000203643 -0.0068026 xyz
    dof rx ry rz
  end
  begin
    id 18
    name RightArm
    direction -0.998573 -0.000999564 -0.053403
    length 10.3947
    axis -23.2009 -0.134239 -0.964101 xyz
    dof rx ry rz
  end
  begin
    id 19
    name RightForeArm
    direction -0.998898 0.00868028 0.0461306
    length 8.68355
    axis -9.92322 0.0658061 0.178868 xyz
    dof rx ry rz
  end
  begin
    id 20
    name RightHand
    direction 0 0 0
    length 0
    axis 0 0 0 xyz
    dof rx ry rz
  end
  begin
    id 21
    name LeftUpLegDummy
    direction 0.718183 -0.695806 0.00816078
    length 4.904
    axis 0 0 0 xyz
  end
  begin
    id 22
    name LeftUpLeg
    direction -6.81752e-006 -0.995793 0.0916337
    length 17.4976
    axis -3.48766 0.00143442 -0.000524262 xyz
    dof rx ry rz
  end
  begin
    id 23
    name LeftLeg
    direction -0.00601358 -0.995091 -0.0987824
    length 16.5821
    axis 3.68178 -0.00654042 -0.000285133 xyz
    dof rx ry rz
  end
  begin
    id 24
    name LeftFoot
    direction -0.00417578 -0.460984 0.887399
    length 3.77069
    axis 1.87233e-006 4.66016e-005 -8.6538e-006 xyz
    dof rx ry rz
  end
  begin
    id 25
    name LeftToes
    direction 0 0 0
    length 0
    axis 0 0 0 xyz
    dof rx ry rz
  end
:hierarchy
  begin
    root RightUpLegDummy SpineDummy LeftUpLegDummy
    RightUpLegDummy RightUpLeg
    RightUpLeg RightLeg
    RightLeg RightFoot
    RightFoot RightToes
    SpineDummy Spine
    Spine Spine1
    Spine1 HEadDummy LeftShoulder1Dummy RightShoulderDummy
    HEadDummy HEad
    LeftShoulder1Dummy LeftShoulder1
    LeftShoulder1 LeftArm
    LeftArm LeftForeArm
    LeftForeArm LeftHand
    RightShoulderDummy RightShoulder
    RightShoulder RightArm
    RightArm RightForeArm
    RightForeArm RightHand
    LeftUpLegDummy LeftUpLeg
    LeftUpLeg LeftLeg
    LeftLeg LeftFoot
    LeftFoot LeftToes
  end

:SAMPLES-PER-SECOND 30
:FULLY-SPECIFIED
:DEGREES
243
root  32.2644 38.6833 10.5755 152.792 74.2094 155.307
RightUpLeg  -15.035 -20.5671 -16.1568
RightLeg  33.9995 -10.5106 -7.77962
RightFoot  -7.68163 -0.194247 4.43357
RightToes  0.000481921 0.542163 -0.142578
Spine  25.6952 0.909544 14.1634
Spine1  0.607341 6.97072 -14.9948
HEad  11.5188 -18.363 0.94247
LeftShoulder1  5.40305 -14.5209 -23.7058
LeftArm  12.6293 -43.1091 -68.6517
LeftForeArm  176.756 -73.4982 -148.634
LeftHand  -0.25398 0.0180481 5.50724
RightShoulder  2.17196 8.5723 10.792
RightArm  -45.0083 44.6333 22.6415
RightForeArm  48.1075 54.8963 8.82885
RightHand  0.854012 0.71229 15.8637
LeftUpLeg  -15.4668 7.11439 -2.04312
LeftLeg  23.1467 0.915628 0.758014
LeftFoot  -3.29426 0.365063 -4.91416
LeftToes  1.06244e-005 4.65869e-005 -8.65518e-006
244
root  32.0073 38.2895 10.6942 147.95 75.5432 149.652
RightUpLeg  -18.8347 -19.1714 -16.0077
RightLeg  37.4935 -9.8396 -8.26701
RightFoot  -8.70004 -0.148012 3.865
RightToes  0.000481921 0.542163 -0.142578
Spine  27.7367 1.55287 16.4608
Spine1  -0.141384 9.15449 -19.075
HEad  10.2477 -17.924 0.877658
LeftShoulder1  5.49392 -14.3682 -24.5154
LeftArm  12.5207 -40.0383 -66.8089
LeftForeArm  -177.047 -70.3542 -154.506
LeftHand  -0.25398 0.0180481 5.50724
RightShoulder  1.41863 7.17036 5.65607
RightArm  -50.2166 48.6 17.5502
RightForeArm  37.1263 43.5851 7.29014
RightHand  0.01003 1.24644 -0.587767
LeftUpLeg  -18.1216 9.47175 -2.60613
LeftLeg  26.3337 0.693722 0.710276
LeftFoot  -4.66371 0.348774 -5.48712
LeftToes  1.06244e-005 4.65869e-005 -8.65518e-006
245
root  32.0825 38.1291 10.7629 155.046 73.6322 155.848
RightUpLeg  -19.5108 -22.7235 -15.3735
RightLeg  38.491 -9.09153 -7.94966
RightFoot  -9.67796 -0.120588 3.79329
RightToes  0.000481921 0.542163 -0.142578
Spine  26.1805 0.962906 15.9603
Spine1  1.40073 7.89058 -16.3055
HEad  8.15995 -15.5234 0.628714
LeftShoulder1  6.01413 -14.2541 -27.7496
LeftArm  10.6913 -34.495 -62.3289
LeftForeArm  -172.274 -65.9224 -159.974
LeftHand  -0.25398 0.0180481 5.50724
RightShoulder  1.70538 7.01158 8.77107
RightArm  -44.8947 44.6319 22.1285
RightForeArm  44.4923 63.0294 23.2622
RightHand  -0.213464 1.13964 -3.3787
LeftUpLeg  -20.2623 7.83795 -2.16391
LeftLeg  27.9343 0.142025 0.42529
LeftFoot  -5.3218 0.322335 -5.52004
LeftToes  1.06244e-005 4.65869e-005 -8.65518e-006
246
root  32.3636 38.2703 10.7631 162.329 71.0929 163.296
RightUpLeg  -17.093 -26.492 -14.9451
RightLeg  36.9859 -8.79919 -7.31601
RightFoot  -9.89888 -0.116632 3.91519
RightToes  0.000481921 0.542163 -0.142578
Spine  23.676 -0.00628704 13.1929
Spine1  4.38609 5.01007 -10.1964
HEad  6.57947 -12.3247 0.761209
LeftShoulder1  6.73028 -14.4265 -31.4898
LeftArm  7.95498 -27.9286 -57.1808
LeftForeArm  -170.285 -61.8262 -163.4
LeftHand  -0.25398 0.0180481 5.50724
RightShoulder  2.94415 8.38914 18.1012
RightArm  -32.9435 36.5241 29.4896
RightForeArm  134.98 79.8787 116.063
RightHand  0.110442 -2.54785 5.77893
LeftUpLeg  -19.89 5.06921 -1.08948
LeftLeg  27.2942 -0.203902 0.225482
LeftFoot  -5.09611 0.324426 -5.38394
LeftToes  1.06244e-005 4.65869e-005 -8.65518e-006
247
root  32.6675 38.6206 10.6954 162.388 72.0848 164.218
RightUpLeg  -14.2373 -25.9238 -14.6852
RightLeg  33.769 -8.83341 -6.55827
RightFoot  -8.9826 -0.138111 3.76975
RightToes  0.000481921 0.542163 -0.142578
Spine  22.5546 -0.0915363 10.1417
Spine1  6.74513 3.48291 -6.26474
HEad  6.86854 -9.47442 1.04319
LeftShoulder1  7.16976 -14.5439 -33.6804
LeftArm  5.72731 -22.4083 -53.4957
LeftForeArm  -169.303 -59.2193 -165.108
LeftHand  -0.25398 0.0180481 5.50724
RightShoulder  4.55867 10.3429 26.9184
RightArm  -21.9696 28.8225 34.1698
RightForeArm  -175.685 65.3751 161.649
RightHand  0.0984526 -4.22954 11.912
LeftUpLeg  -17.0842 5.23599 -0.205375
LeftLeg  24.7507 0.251769 0.453818
LeftFoot  -4.27489 0.352362 -5.29132
LeftToes  1.06244e-005 4.65869e-005 -8.65518e-006
248
root  32.909 39.016 10.5086 156.54 76.6145 158.846
RightUpLeg  -12.7881 -22.5623 -14.1775
RightLeg  29.8198 -8.19379 -5.29622
RightFoot  -7.32605 -0.173137 3.51344
RightToes  0.000481921 0.542163 -0.142578
Spine  22.1218 0.661939 8.63419
Spine1  7.3601 3.9258 -5.95724
HEad  8.86916 -7.22319 1.02419
LeftShoulder1  7.23819 -14.4649 -34.2268
LeftArm  4.13123 -19.049 -50.7922
LeftForeArm  -167.973 -57.7802 -166.005
LeftHand  -0.25398 0.0180481 5.50724
RightShoulder  5.58612 11.4992 31.3247
RightArm  -16.2772 24.6694 37.6068
RightForeArm  -171.305 61.6205 163.515
RightHand  0.22267 -2.69671 10.8413
LeftUpLeg  -13.6895 8.43591 0.281186
LeftLeg  21.4103 1.55186 0.999422
LeftFoot  -3.31005 0.365222 -4.92298
LeftToes  1.06244e-005 4.65869e-005 -8.65518e-006
249
root  33.0957 39.3175 10.1918 146.511 81.0624 148.724
RightUpLeg  -12.1607 -20.7072 -13.8029
RightLeg  26.1094 -6.19154 -3.52599
RightFoot  -5.66847 -0.224302 3.73143
RightToes  0.000481921 0.542163 -0.142578
Spine  21.2898 1.10401 8.26015
Spine1  6.73753 4.38391 -6.6424
HEad  11.4662 -5.16001 0.792821
LeftShoulder1  7.18677 -14.3982 -34.0915
LeftArm  2.38997 -17.799 -48.3732
LeftForeArm  -167.185 -56.5905 -166.679
LeftHand  -0.25398 0.0180481 5.50724
RightShoulder  5.65959 11.6677 31.3492
RightArm  -13.8432 24.3971 41.609
RightForeArm  -174.917 62.7248 162.316
RightHand  0.210514 -2.01132 7.7764
LeftUpLeg  -11.3157 11.9287 0.548688
LeftLeg  18.7752 2.8101 1.38994
LeftFoot  -2.66945 0.34241 -4.30083
LeftToes  1.06244e-005 4.65869e-005 -8.65518e-006
250
root  33.2278 39.4671 9.81868 133.338 83.7958 135.354
RightUpLeg  -11.8295 -20.4945 -13.7004
RightLeg  23.6308 -3.91927 -2.08954
RightFoot  -4.50754 -0.300199 4.51224
RightToes  0.000481921 0.542163 -0.142578
Spine  20.1108 0.862272 8.08978
Spine1  6.01523 3.93904 -6.67253
HEad  13.7192 -3.32775 0.815885
LeftShoulder1  7.14752 -14.4821 -33.6901
LeftArm  0.551491 -18.3355 -46.9419
LeftForeArm  -167.57 -55.4367 -167.215
LeftHand  -0.25398 0.0180481 5.50724
RightShoulder  5.21502 11.3766 29.0541
RightArm  -12.1576 27.3409 45.9041
RightForeArm  177.336 65.4452 159.291
RightHand  0.112752 -1.7712 4.24793
LeftUpLeg  -10.305 14.4178 0.733428
LeftLeg  17.9148 3.38542 1.5271
LeftFoot  -2.67073 0.32392 -4.06103
LeftToes  1.06244e-005 4.65869e-005 -8.65518e-006
251
root  33.2827 39.4395 9.47627 109.44 85.4615 111.704
RightUpLeg  -12.0811 -18.8355 -13.7148
RightLeg  23.2458 -2.9885 -1.62631
RightFoot  -4.12656 -0.357552 5.22754
RightToes  0.000481921 0.542163 -0.142578
Spine  19.7308 0.578743 7.98086
Spine1  5.51684 3.50919 -6.52448
HEad  15.0366 -2.24745 1.14336
LeftShoulder1  7.12997 -14.7479 -33.0187
LeftArm  -0.617054 -20.3182 -46.9985
LeftForeArm  -168.117 -54.9166 -167.42
LeftHand  -0.25398 0.0180481 5.50724
RightShoulder  4.74689 11.0866 26.4733
RightArm  -11.3283 32.0895 49.318
RightForeArm  168.032 69.5376 153.683
RightHand  -0.0130114 -0.614147 -0.131195
LeftUpLeg  -10.0686 16.5941 0.946436
LeftLeg  19.1829 3.67076 1.75274
LeftFoot  -3.54767 0.321143 -4.41085
LeftToes  1.06244e-005 4.65869e-005 -8.65518e-006
252
root  33.2716 39.2355 9.17472 73.1808 85.7955 76.3226
RightUpLeg  -12.8696 -15.4424 -13.8432
RightLeg  24.9697 -3.2796 -1.89345
RightFoot  -4.51015 -0.349976 5.3404
RightToes  0.000481921 0.542163 -0.142578
Spine  20.4985 0.491651 7.93708
Spine1  5.2031 3.4203 -6.39171
HEad  15.1611 -1.86921 1.41712
LeftShoulder1  7.17141 -15.1883 -32.3185
LeftArm  -1.45453 -23.3386 -47.6662
LeftForeArm  -168.379 -55.5338 -167.106
LeftHand  -0.25398 0.0180481 5.50724
RightShoulder  4.43452 11.0401 24.3405
RightArm  -11.0377 37.1253 51.6269
RightForeArm  159.348 73.1188 146.729
RightHand  -0.164022 0.456875 -3.39536
LeftUpLeg  -10.0994 17.9541 1.17218
LeftLeg  22.1669 4.76885 2.47669
LeftFoot  -5.30945 0.278166 -4.66188
LeftToes  1.06244e-005 4.65869e-005 -8.65518e-006
253
root  33.2595 38.9273 8.87964 50.4694 85.0368 54.8952
RightUpLeg  -13.4802 -12.7632 -14.2593
RightLeg  27.655 -3.49551 -2.21456
RightFoot  -5.27535 -0.30429 5.06012
RightToes  0.000481921 0.542163 -0.142578
Spine  21.2542 0.15875 7.75985
Spine1  5.73481 3.00229 -5.82816
HEad  14.4689 -1.58488 1.508
LeftShoulder1  7.22263 -15.5778 -31.7981
LeftArm  -2.62827 -26.9947 -48.1512
LeftForeArm  -168.988 -56.7993 -166.437
LeftHand  -0.25398 0.0180481 5.50724
RightShoulder  4.28235 11.2337 22.825
RightArm  -10.1025 41.2913 53.7221
RightForeArm  155.72 74.235 143.657
RightHand  -0.208797 0.326323 -4.29249
LeftUpLeg  -10.1378 17.8162 1.17505
LeftLeg  25.7284 6.54355 3.76588
LeftFoot  -7.5012 0.190148 -4.30361
LeftToes  1.06244e-005 4.65869e-005 -8.65518e-006
